<?xml version="1.0" encoding="UTF-8" standalone="no"?>
<!-- Created with Inkscape (http://www.inkscape.org/) -->

<svg width="320" height="96" viewBox="0 0 320 96" version="1.1" id="svg8" inkscape:version="1.3.2 (091e20ef0f, 2023-11-25)" sodipodi:docname="treeicons.svg" xmlns:inkscape="http://www.inkscape.org/namespaces/inkscape" xmlns:sodipodi="http://sodipodi.sourceforge.net/DTD/sodipodi-0.dtd" xmlns="http://www.w3.org/2000/svg" xmlns:svg="http://www.w3.org/2000/svg" xmlns:rdf="http://www.w3.org/1999/02/22-rdf-syntax-ns#" xmlns:cc="http://creativecommons.org/ns#" xmlns:dc="http://purl.org/dc/elements/1.1/">
  <defs id="defs2" />
  <sodipodi:namedview id="base" pagecolor="#ffffff" bordercolor="#666666" borderopacity="1.0" inkscape:pageopacity="0.0" inkscape:pageshadow="2" inkscape:zoom="0.49497475" inkscape:cx="380.74511" inkscape:cy="508.3253" inkscape:document-units="px" inkscape:current-layer="layer1" showgrid="true" units="in" inkscape:window-width="1366" inkscape:window-height="707" inkscape:window-x="0" inkscape:window-y="0" inkscape:window-maximized="1" inkscape:pagecheckerboard="0" inkscape:snap-global="false" inkscape:showpageshadow="0" inkscape:deskcolor="#d1d1d1">
    <inkscape:grid type="xygrid" id="grid1420" units="px" spacingx="1" spacingy="1" empspacing="4" originx="0" originy="0" visible="true" dotted="true" />
    <inkscape:grid id="grid1" units="px" originx="0" originy="0" spacingx="32" spacingy="32" empcolor="#ffba34" empopacity="1" color="#f6ba00" opacity="1" empspacing="1" dotted="false" gridanglex="30" gridanglez="30" visible="true" />
  </sodipodi:namedview>
  <metadata id="metadata5">
    <rdf:RDF>
      <cc:Work rdf:about="">
        <dc:format>image/svg+xml</dc:format>
        <dc:type rdf:resource="http://purl.org/dc/dcmitype/StillImage" />
      </cc:Work>
    </rdf:RDF>
  </metadata>
  <g inkscape:label="Layer 1" inkscape:groupmode="layer" id="layer1" transform="translate(0,-17.599992)">
    <path style="fill:#000000;fill-opacity:0.987167;stroke-width:3;stroke-linejoin:round" d="M 20,33.599992 L 12,29.599992 V 37.599992 Z" id="path1" />
    <path style="fill:#000000;fill-opacity:0.987167;stroke-width:3;stroke-linejoin:round" d="M 52.242641,37.842633 L 49.414214,29.357352 L 43.75736,35.014206 Z" id="path2" />
    <path style="fill:none;fill-opacity:0.987167;stroke:#000000;stroke-width:1;stroke-linecap:round;stroke-linejoin:round;stroke-dasharray:1, 3;stroke-dashoffset:0;stroke-opacity:1" d="M 80,18.599992 V 33.599992 H 95" id="path3" sodipodi:nodetypes="ccc" />
    <path style="fill:none;fill-opacity:0.987167;stroke:#000000;stroke-width:1;stroke-linecap:round;stroke-linejoin:round;stroke-dasharray:1, 3;stroke-dashoffset:0;stroke-opacity:1" d="M 112.25,18.599992 V 33.599992 H 127" id="path4" sodipodi:nodetypes="ccc" />
    <path style="fill:#000000;fill-opacity:0.987167;stroke-width:3;stroke-linejoin:round" d="M 116,33.599992 L 108,29.599992 V 37.599992 Z" id="path5" />
    <path style="fill:none;fill-opacity:0.987167;stroke:#000000;stroke-width:1;stroke-linecap:round;stroke-linejoin:round;stroke-dasharray:1, 3;stroke-dashoffset:0;stroke-opacity:1" d="M 144,18.599992 V 33.599992 H 159" id="path6" sodipodi:nodetypes="ccc" />
    <path style="fill:#000000;fill-opacity:0.987167;stroke-width:3;stroke-linejoin:round" d="M 148,37.842633 L 145.17157,29.357352 L 139.51472,35.014206 Z" id="path7" />
    <rect style="fill:none;fill-opacity:0.987167;stroke:#000000;stroke-width:1;stroke-linecap:round;stroke-linejoin:round;stroke-dasharray:none;stroke-dashoffset:0;stroke-opacity:1" id="rect7" width="16" height="15.999999" x="168" y="25.599993" />
    <rect style="fill:none;fill-opacity:0.987167;stroke:#000000;stroke-width:1;stroke-linecap:round;stroke-linejoin:round;stroke-dasharray:none;stroke-dashoffset:0;stroke-opacity:1" id="rect8" width="16" height="15.999999" x="200" y="25.599993" />
    <rect style="fill:#000000;fill-opacity:0.987167;stroke:#000000;stroke-width:1;stroke-linecap:round;stroke-linejoin:round;stroke-dasharray:none;stroke-dashoffset:0;stroke-opacity:1" id="rect9" width="8" height="7.999999" x="204" y="29.599993" />
    <rect style="fill:none;fill-opacity:0.987167;stroke:#000000;stroke-width:1;stroke-linecap:round;stroke-linejoin:round;stroke-dasharray:none;stroke-dashoffset:0;stroke-opacity:1" id="rect10" width="16" height="15.999999" x="232" y="25.599993" />
    <path style="fill:none;fill-opacity:0.987167;stroke:#000000;stroke-width:2;stroke-linecap:round;stroke-linejoin:round;stroke-dasharray:none;stroke-dashoffset:0;stroke-opacity:1" d="M 235,34.599992 L 240,39.599992 L 246,27.599992" id="path10" sodipodi:nodetypes="ccc" />
    <path style="fill:#ffffff;fill-opacity:0.987167;stroke:#000000;stroke-width:1;stroke-linecap:round;stroke-linejoin:round;stroke-dasharray:none;stroke-dashoffset:0;stroke-opacity:1" d="M 264,29.599992 V 41.599992 H 280 V 29.599992 H 272 V 27.599992 H 264 Z" id="path11" sodipodi:nodetypes="ccccccccc" />
    <path style="fill:#ffffff;fill-opacity:0.987167;stroke:#000000;stroke-width:1;stroke-linecap:round;stroke-linejoin:round;stroke-dasharray:none;stroke-dashoffset:0;stroke-opacity:1" d="M 280,41.599992 L 276,33.599992 H 260 L 264,41.599992 Z" id="path12" sodipodi:nodetypes="ccccc" />
    <path style="fill:none;fill-opacity:0.987167;stroke:#000000;stroke-width:1;stroke-linecap:round;stroke-linejoin:round;stroke-dasharray:1, 3;stroke-dashoffset:0;stroke-opacity:1" d="M 304,18.599992 V 48.599992" id="path6-3" sodipodi:nodetypes="cc" />
    <path style="fill:#000000;fill-opacity:0.987167;stroke-width:3;stroke-linejoin:round" d="M 12,65.599992 L 20,61.599992 V 69.599992 Z" id="path13" />
    <path style="fill:#000000;fill-opacity:0.987167;stroke-width:3;stroke-linejoin:round" d="M 43.75736,69.842633 L 46.58579,61.357352 L 52.24264,67.014206 Z" id="path14" />
    <path style="fill:none;fill-opacity:0.987167;stroke:#000000;stroke-width:1;stroke-linecap:round;stroke-linejoin:round;stroke-dasharray:1, 3;stroke-dashoffset:0;stroke-opacity:1" d="M 79,50.599992 V 65.599992 H 64" id="path15" sodipodi:nodetypes="ccc" />
    <path style="fill:none;fill-opacity:0.987167;stroke:#000000;stroke-width:1;stroke-linecap:round;stroke-linejoin:round;stroke-dasharray:1, 3;stroke-dashoffset:0;stroke-opacity:1" d="M 111,50.599992 V 65.599992 H 96.25" id="path16" sodipodi:nodetypes="ccc" />
    <path style="fill:#000000;fill-opacity:0.987167;stroke-width:3;stroke-linejoin:round" d="M 108,65.599992 L 116,61.599992 V 69.599992 Z" id="path17" />
    <path style="fill:none;fill-opacity:0.987167;stroke:#000000;stroke-width:1;stroke-linecap:round;stroke-linejoin:round;stroke-dasharray:1, 3;stroke-dashoffset:0;stroke-opacity:1" d="M 143,50.599992 V 65.599992 H 128" id="path18" sodipodi:nodetypes="ccc" />
    <path style="fill:#000000;fill-opacity:0.987167;stroke-width:3;stroke-linejoin:round" d="M 139.51472,69.842633 L 142.34315,61.357352 L 148,67.014206 Z" id="path19" />
    <rect style="fill:none;fill-opacity:0.987167;stroke:#000000;stroke-width:1;stroke-linecap:round;stroke-linejoin:round;stroke-dasharray:none;stroke-dashoffset:0;stroke-opacity:1" id="rect19" width="16" height="15.999999" x="168" y="57.599995" />
    <rect style="fill:none;fill-opacity:0.987167;stroke:#000000;stroke-width:1;stroke-linecap:round;stroke-linejoin:round;stroke-dasharray:none;stroke-dashoffset:0;stroke-opacity:1" id="rect20" width="16" height="15.999999" x="200" y="57.599995" />
    <rect style="fill:#000000;fill-opacity:0.987167;stroke:#000000;stroke-width:1;stroke-linecap:round;stroke-linejoin:round;stroke-dasharray:none;stroke-dashoffset:0;stroke-opacity:1" id="rect21" width="8" height="7.999999" x="204" y="61.599995" />
    <rect style="fill:none;fill-opacity:0.987167;stroke:#000000;stroke-width:1;stroke-linecap:round;stroke-linejoin:round;stroke-dasharray:none;stroke-dashoffset:0;stroke-opacity:1" id="rect22" width="16" height="15.999999" x="232" y="57.599995" />
    <path style="fill:none;fill-opacity:0.987167;stroke:#000000;stroke-width:2;stroke-linecap:round;stroke-linejoin:round;stroke-dasharray:none;stroke-dashoffset:0;stroke-opacity:1" d="M 235,66.599992 L 240,71.599992 L 246,59.599992" id="path22" sodipodi:nodetypes="ccc" />
    <path style="fill:#ffffff;fill-opacity:0.987167;stroke:#000000;stroke-width:1;stroke-linecap:round;stroke-linejoin:round;stroke-dasharray:none;stroke-dashoffset:0;stroke-opacity:1" d="M 264,53.599992 H 268 L 272,57.599992 V 73.599992 L 268,77.599992 H 264" id="path23" />
    <path style="fill:#ffffff;fill-opacity:0.987167;stroke:#000000;stroke-width:1;stroke-linecap:round;stroke-linejoin:round;stroke-dasharray:none;stroke-dashoffset:0;stroke-opacity:1" d="M 280,53.599992 H 276 L 272,57.599992 V 73.599992 L 276,77.599992 H 280" id="path24" />
    <path style="fill:#ffffff;fill-opacity:0.987167;stroke:#000000;stroke-width:4;stroke-linecap:round;stroke-linejoin:round;stroke-dasharray:none;stroke-dashoffset:0;stroke-opacity:1" d="M 88,97.599992 L 72,89.599992 V 105.59999 Z" id="path28" />
    <path style="fill:#ffffff;fill-opacity:0.987167;stroke:#000000;stroke-width:1;stroke-linecap:round;stroke-linejoin:round;stroke-dasharray:none;stroke-dashoffset:0;stroke-opacity:1" d="M 106,89.599994 V 105.59999 H 118 V 92.599992 L 115,89.599992 Z" id="path29" sodipodi:nodetypes="cccccc" />
    <path style="fill:#ffffff;fill-opacity:0.987167;stroke:#000000;stroke-width:1;stroke-linecap:round;stroke-linejoin:round;stroke-dasharray:none;stroke-dashoffset:0;stroke-opacity:1" d="M 115,89.599992 V 92.599992 H 118 Z" id="path30" />
    <path style="fill:none;fill-opacity:0.987167;stroke:#000000;stroke-width:1;stroke-linecap:round;stroke-linejoin:round;stroke-dasharray:1, 3;stroke-dashoffset:0;stroke-opacity:1" d="M 304,50.849992 V 80.849992" id="path31" sodipodi:nodetypes="cc" />
    <path style="fill:none;fill-opacity:0.987167;stroke:#000000;stroke-width:1;stroke-linecap:round;stroke-linejoin:round;stroke-dasharray:1, 3;stroke-dashoffset:0;stroke-opacity:1" d="M 304,82.849992 V 112.84999" id="path32" sodipodi:nodetypes="cc" />
    <path id="path41" style="color:#000000;fill:#e90000;stroke-linecap:round;stroke-linejoin:round;-inkscape-stroke:none;fill-opacity:1;stroke:#a60e0e;stroke-opacity:1" d="M 48 88.099992 C 42.771072 88.099992 38.5 92.371064 38.5 97.599992 C 38.5 100.1892 39.548019 102.54293 41.240234 104.26015 A 1.5 1.5 0 0 0 41.283203 104.31874 A 1.5 1.5 0 0 0 41.341797 104.36171 C 43.058849 106.05279 45.411776 107.09999 48 107.09999 C 53.228928 107.09999 57.5 102.82892 57.5 97.599992 C 57.5 95.051889 56.482981 92.733587 54.837891 91.02382 A 1.5 1.5 0 0 0 54.716797 90.883195 A 1.5 1.5 0 0 0 54.666016 90.846086 C 52.948288 89.15045 50.592183 88.099992 48 88.099992 z M 48 91.099992 C 49.25686 91.099992 50.426797 91.450859 51.417969 92.06093 L 42.460938 101.01796 C 41.851157 100.02695 41.5 98.856529 41.5 97.599992 C 41.5 93.992382 44.39239 91.099992 48 91.099992 z M 53.539063 94.183976 C 54.148311 95.174686 54.5 96.344048 54.5 97.599992 C 54.5 101.2076 51.60761 104.09999 48 104.09999 C 46.744056 104.09999 45.574694 103.7483 44.583984 103.13905 L 53.539063 94.183976 z " />
    <path style="fill:#316a37;fill-opacity:1;stroke:none;stroke-width:3;stroke-linecap:round;stroke-linejoin:round;stroke-dasharray:none;stroke-dashoffset:0;stroke-opacity:1" d="M 16,107.59999 L 12,103.59999 H 20 Z" id="path42" />
    <path style="fill:#316a37;fill-opacity:1;stroke:none;stroke-width:3;stroke-linecap:round;stroke-linejoin:round;stroke-dasharray:none;stroke-dashoffset:0;stroke-opacity:1" d="M 16,102.59999 L 9,96.599994 H 23 Z" id="path43" sodipodi:nodetypes="cccc" />
    <path style="fill:#316a37;fill-opacity:1;stroke:none;stroke-width:3;stroke-linecap:round;stroke-linejoin:round;stroke-dasharray:none;stroke-dashoffset:0;stroke-opacity:1" d="M 16,95.599994 L 7,88.599995 H 25 Z" id="path44" sodipodi:nodetypes="cccc" />
    <rect style="fill:#ff02ec;fill-opacity:1;stroke:none;stroke-width:3;stroke-linecap:round;stroke-linejoin:round;stroke-dasharray:none;stroke-dashoffset:0;stroke-opacity:1" id="rect44" width="144" height="8" x="136" y="93.599991" />
  </g>
</svg>
